<svg width="208" height="193" viewBox="0 0 208 193" fill="none" xmlns="http://www.w3.org/2000/svg">
<path d="M20.036 184L11.792 158.8H17.84L25.004 181.12H21.98L29.468 158.8H34.868L42.068 181.12H39.152L46.496 158.8H52.076L43.832 184H37.568L31.196 164.416H32.852L26.3 184H20.036ZM65.3743 184V180.22L65.0143 179.392V172.624C65.0143 171.424 64.6423 170.488 63.8983 169.816C63.1783 169.144 62.0623 168.808 60.5503 168.808C59.5183 168.808 58.4983 168.976 57.4903 169.312C56.5063 169.624 55.6663 170.056 54.9703 170.608L52.9543 166.684C54.0103 165.94 55.2823 165.364 56.7703 164.956C58.2583 164.548 59.7703 164.344 61.3063 164.344C64.2583 164.344 66.5503 165.04 68.1823 166.432C69.8143 167.824 70.6303 169.996 70.6303 172.948V184H65.3743ZM59.4703 184.288C57.9583 184.288 56.6623 184.036 55.5823 183.532C54.5023 183.004 53.6743 182.296 53.0983 181.408C52.5223 180.52 52.2343 179.524 52.2343 178.42C52.2343 177.268 52.5103 176.26 53.0623 175.396C53.6383 174.532 54.5383 173.86 55.7623 173.38C56.9863 172.876 58.5823 172.624 60.5503 172.624H65.6983V175.9H61.1623C59.8423 175.9 58.9303 176.116 58.4263 176.548C57.9463 176.98 57.7063 177.52 57.7063 178.168C57.7063 178.888 57.9823 179.464 58.5343 179.896C59.1103 180.304 59.8903 180.508 60.8743 180.508C61.8103 180.508 62.6503 180.292 63.3943 179.86C64.1383 179.404 64.6783 178.744 65.0143 177.88L65.8783 180.472C65.4703 181.72 64.7263 182.668 63.6463 183.316C62.5663 183.964 61.1743 184.288 59.4703 184.288ZM87.4851 164.344C89.0211 164.344 90.3891 164.656 91.5891 165.28C92.8131 165.88 93.7731 166.816 94.4691 168.088C95.1651 169.336 95.5131 170.944 95.5131 172.912V184H89.8971V173.776C89.8971 172.216 89.5491 171.064 88.8531 170.32C88.1811 169.576 87.2211 169.204 85.9731 169.204C85.0851 169.204 84.2811 169.396 83.5611 169.78C82.8651 170.14 82.3131 170.704 81.9051 171.472C81.5211 172.24 81.3291 173.224 81.3291 174.424V184H75.7131V164.632H81.0771V169.996L80.0691 168.376C80.7651 167.08 81.7611 166.084 83.0571 165.388C84.3531 164.692 85.8291 164.344 87.4851 164.344ZM109.06 184.288C107.236 184.288 105.592 183.88 104.128 183.064C102.664 182.224 101.5 181.06 100.636 179.572C99.7963 178.084 99.3763 176.332 99.3763 174.316C99.3763 172.276 99.7963 170.512 100.636 169.024C101.5 167.536 102.664 166.384 104.128 165.568C105.592 164.752 107.236 164.344 109.06 164.344C110.692 164.344 112.12 164.704 113.344 165.424C114.568 166.144 115.516 167.236 116.188 168.7C116.86 170.164 117.196 172.036 117.196 174.316C117.196 176.572 116.872 178.444 116.224 179.932C115.576 181.396 114.64 182.488 113.416 183.208C112.216 183.928 110.764 184.288 109.06 184.288ZM110.032 179.68C110.944 179.68 111.772 179.464 112.516 179.032C113.26 178.6 113.848 177.988 114.28 177.196C114.736 176.38 114.964 175.42 114.964 174.316C114.964 173.188 114.736 172.228 114.28 171.436C113.848 170.644 113.26 170.032 112.516 169.6C111.772 169.168 110.944 168.952 110.032 168.952C109.096 168.952 108.256 169.168 107.512 169.6C106.768 170.032 106.168 170.644 105.712 171.436C105.28 172.228 105.064 173.188 105.064 174.316C105.064 175.42 105.28 176.38 105.712 177.196C106.168 177.988 106.768 178.6 107.512 179.032C108.256 179.464 109.096 179.68 110.032 179.68ZM115.108 184V180.04L115.216 174.28L114.856 168.556V157.288H120.472V184H115.108ZM135.282 184.288C133.074 184.288 131.13 183.856 129.45 182.992C127.794 182.128 126.51 180.952 125.598 179.464C124.686 177.952 124.23 176.236 124.23 174.316C124.23 172.372 124.674 170.656 125.562 169.168C126.474 167.656 127.71 166.48 129.27 165.64C130.83 164.776 132.594 164.344 134.562 164.344C136.458 164.344 138.162 164.752 139.674 165.568C141.21 166.36 142.422 167.512 143.31 169.024C144.198 170.512 144.642 172.3 144.642 174.388C144.642 174.604 144.63 174.856 144.606 175.144C144.582 175.408 144.558 175.66 144.534 175.9H128.802V172.624H141.582L139.422 173.596C139.422 172.588 139.218 171.712 138.81 170.968C138.402 170.224 137.838 169.648 137.118 169.24C136.398 168.808 135.558 168.592 134.598 168.592C133.638 168.592 132.786 168.808 132.042 169.24C131.322 169.648 130.758 170.236 130.35 171.004C129.942 171.748 129.738 172.636 129.738 173.668V174.532C129.738 175.588 129.966 176.524 130.422 177.34C130.902 178.132 131.562 178.744 132.402 179.176C133.266 179.584 134.274 179.788 135.426 179.788C136.458 179.788 137.358 179.632 138.126 179.32C138.918 179.008 139.638 178.54 140.286 177.916L143.274 181.156C142.386 182.164 141.27 182.944 139.926 183.496C138.582 184.024 137.034 184.288 135.282 184.288ZM148.381 184V164.632H153.745V170.104L152.989 168.52C153.565 167.152 154.489 166.12 155.761 165.424C157.033 164.704 158.581 164.344 160.405 164.344V169.528C160.165 169.504 159.949 169.492 159.757 169.492C159.565 169.468 159.361 169.456 159.145 169.456C157.609 169.456 156.361 169.9 155.401 170.788C154.465 171.652 153.997 173.008 153.997 174.856V184H148.381ZM173.216 184.288C171.008 184.288 169.064 183.856 167.384 182.992C165.728 182.128 164.444 180.952 163.532 179.464C162.62 177.952 162.164 176.236 162.164 174.316C162.164 172.372 162.608 170.656 163.496 169.168C164.408 167.656 165.644 166.48 167.204 165.64C168.764 164.776 170.528 164.344 172.496 164.344C174.392 164.344 176.096 164.752 177.608 165.568C179.144 166.36 180.356 167.512 181.244 169.024C182.132 170.512 182.576 172.3 182.576 174.388C182.576 174.604 182.564 174.856 182.54 175.144C182.516 175.408 182.492 175.66 182.468 175.9H166.736V172.624H179.516L177.356 173.596C177.356 172.588 177.152 171.712 176.744 170.968C176.336 170.224 175.772 169.648 175.052 169.24C174.332 168.808 173.492 168.592 172.532 168.592C171.572 168.592 170.72 168.808 169.976 169.24C169.256 169.648 168.692 170.236 168.284 171.004C167.876 171.748 167.672 172.636 167.672 173.668V174.532C167.672 175.588 167.9 176.524 168.356 177.34C168.836 178.132 169.496 178.744 170.336 179.176C171.2 179.584 172.208 179.788 173.36 179.788C174.392 179.788 175.292 179.632 176.06 179.32C176.852 179.008 177.572 178.54 178.22 177.916L181.208 181.156C180.32 182.164 179.204 182.944 177.86 183.496C176.516 184.024 174.968 184.288 173.216 184.288ZM186.315 184V164.632H191.679V170.104L190.923 168.52C191.499 167.152 192.423 166.12 193.695 165.424C194.967 164.704 196.515 164.344 198.339 164.344V169.528C198.099 169.504 197.883 169.492 197.691 169.492C197.499 169.468 197.295 169.456 197.079 169.456C195.543 169.456 194.295 169.9 193.335 170.788C192.399 171.652 191.931 173.008 191.931 174.856V184H186.315Z" fill="#FAFAFA"/>
<rect y="29.1108" width="51.148" height="112.328" rx="25.574" transform="rotate(-34.6719 0 29.1108)" fill="#FAFAFA"/>
<rect x="99.8997" y="0.724182" width="50.0316" height="109.246" rx="25.0158" transform="rotate(34.4818 99.8997 0.724182)" fill="#FAFAFA"/>
<rect x="72.4431" y="29.2396" width="50.8615" height="112.899" rx="25.4307" transform="rotate(-35.0917 72.4431 29.2396)" fill="#FAFAFA"/>
<path d="M178.011 40.8811L168.042 51.2725C166.642 52.7316 166.22 54.9112 167.166 56.6983C169.275 60.6828 171.963 63.685 179.238 70.2231C179.933 70.8476 180.973 70.9105 181.721 70.3501C189.178 64.7599 198.479 55.4768 205.149 41.896C209.267 34.4212 209.419 13.4192 190.735 7.68487C157.189 -2.61071 145.329 36.629 159.095 48.1601C160.643 49.4569 162.876 49.0566 164.365 47.6923L174.994 37.9541C175.5 37.4907 175.399 36.6671 174.797 36.3387L165.369 31.2006C164.399 30.6719 164.877 29.1926 165.973 29.3303L180.929 31.2096C181.176 31.2406 181.424 31.1549 181.599 30.9777L187.921 24.5702C188.744 23.7361 190.447 23.5222 191.332 24.2903C192.644 25.4288 192.066 27.3706 190.824 28.5844L184.851 34.4212L186.619 50.1862C186.742 51.2828 185.259 51.7411 184.742 50.7663L179.616 41.1047C179.297 40.503 178.482 40.3896 178.011 40.8811Z" fill="#FAFAFA"/>
</svg>
